<svg xmlns="http://www.w3.org/2000/svg" xmlns:xlink="http://www.w3.org/1999/xlink" width="1080" zoomAndPan="magnify" viewBox="0 0 810 809.999993" height="1080" preserveAspectRatio="xMidYMid meet" version="1.0"><defs><clipPath id="id1"><path d="M 130.105469 0 L 679.855469 0 L 679.855469 810 L 130.105469 810 Z M 130.105469 0 " clip-rule="nonzero"/></clipPath></defs><rect x="-81" width="972" fill="#ffffff" y="-80.999999" height="971.999992" fill-opacity="1"/><rect x="-81" width="972" fill="#ffffff" y="-80.999999" height="971.999992" fill-opacity="1"/><rect x="-81" width="972" fill="#ffffff" y="-80.999999" height="971.999992" fill-opacity="1"/><rect x="-81" width="972" fill="#ffffff" y="-80.999999" height="971.999992" fill-opacity="1"/><path fill="#ffffff" d="M 675.894531 763.867188 C 675.894531 787.277344 656.917969 806.253906 633.511719 806.253906 L 176.714844 806.253906 C 153.320312 806.253906 134.34375 787.277344 134.34375 763.867188 L 134.34375 46.410156 C 134.34375 22.988281 153.320312 4.011719 176.714844 4.011719 L 633.511719 4.011719 C 656.917969 4.011719 675.894531 22.988281 675.894531 46.410156 L 675.894531 763.867188 " fill-opacity="1" fill-rule="nonzero"/><g clip-path="url(#id1)"><path fill="#231f20" d="M 675.894531 763.867188 L 671.957031 763.867188 C 671.957031 774.5 667.664062 784.082031 660.699219 791.058594 C 653.726562 798.023438 644.140625 802.316406 633.511719 802.328125 L 176.714844 802.328125 C 166.085938 802.316406 156.503906 798.023438 149.527344 791.058594 C 142.5625 784.082031 138.269531 774.5 138.261719 763.867188 L 138.261719 46.410156 C 138.269531 35.765625 142.5625 26.183594 149.527344 19.207031 C 156.503906 12.242188 166.085938 7.949219 176.714844 7.949219 L 633.511719 7.949219 C 644.140625 7.949219 653.726562 12.242188 660.699219 19.207031 C 667.664062 26.183594 671.957031 35.765625 671.957031 46.410156 L 671.957031 763.867188 L 679.824219 763.867188 L 679.824219 46.410156 C 679.8125 20.820312 659.085938 0.09375 633.511719 0.0820312 L 176.714844 0.0820312 C 151.140625 0.09375 130.414062 20.820312 130.40625 46.410156 L 130.40625 763.867188 C 130.414062 789.445312 151.140625 810.171875 176.714844 810.183594 L 633.511719 810.183594 C 659.085938 810.171875 679.8125 789.445312 679.824219 763.867188 L 675.894531 763.867188 " fill-opacity="1" fill-rule="nonzero"/></g><path fill="#231f20" d="M 465.441406 329.363281 C 442.917969 329.363281 423.226562 342.066406 412.449219 361.035156 L 423.058594 245.070312 L 386.917969 245.070312 L 397.800781 361.210938 C 387.160156 341.910156 367.34375 328.902344 344.605469 328.902344 C 310.621094 328.902344 283.089844 357.882812 283.089844 393.648438 C 283.089844 456.238281 321.460938 488.65625 405.109375 565.195312 C 405.109375 565.195312 527.128906 480.539062 527.128906 394.296875 C 527.128906 358.4375 499.511719 329.363281 465.441406 329.363281 " fill-opacity="1" fill-rule="nonzero"/><path fill="#231f20" d="M 176.644531 182.15625 C 182.757812 182.15625 188.121094 178.699219 191.054688 173.535156 L 188.171875 205.082031 L 197.996094 205.082031 L 195.035156 173.484375 C 197.933594 178.742188 203.328125 182.28125 209.507812 182.28125 C 218.753906 182.28125 226.242188 174.394531 226.242188 164.664062 C 226.242188 147.636719 215.800781 138.816406 193.054688 118.003906 C 193.054688 118.003906 159.855469 141.027344 159.855469 164.488281 C 159.855469 174.25 167.375 182.15625 176.644531 182.15625 " fill-opacity="1" fill-rule="nonzero"/><path fill="#231f20" d="M 633.585938 630.8125 C 627.457031 630.8125 622.097656 634.269531 619.175781 639.433594 L 622.066406 607.886719 L 612.230469 607.886719 L 615.183594 639.484375 C 612.292969 634.226562 606.902344 630.6875 600.722656 630.6875 C 591.472656 630.6875 583.984375 638.574219 583.984375 648.304688 C 583.984375 665.332031 594.425781 674.140625 617.175781 694.960938 C 617.175781 694.960938 650.375 671.941406 650.375 648.480469 C 650.375 638.71875 642.855469 630.8125 633.585938 630.8125 " fill-opacity="1" fill-rule="nonzero"/><path fill="#231f20" d="M 199.378906 80.195312 L 194.144531 64.808594 C 192.949219 61.3125 192.164062 58.140625 191.355469 55.039062 L 191.199219 55.039062 C 190.414062 58.222656 189.535156 61.46875 188.507812 64.726562 L 183.273438 80.195312 Z M 181.835938 85.601562 L 176.285156 102.421875 L 169.144531 102.421875 L 187.316406 48.933594 L 195.652344 48.933594 L 213.90625 102.421875 L 206.523438 102.421875 L 200.804688 85.601562 L 181.835938 85.601562 " fill-opacity="1" fill-rule="nonzero"/><path fill="#231f20" d="M 611.089844 730.070312 L 616.328125 745.464844 C 617.519531 748.953125 618.304688 752.128906 619.101562 755.226562 L 619.269531 755.226562 C 620.054688 752.054688 620.933594 748.796875 621.960938 745.539062 L 627.195312 730.070312 Z M 628.632812 724.664062 L 634.183594 707.84375 L 641.324219 707.84375 L 623.15625 761.332031 L 614.816406 761.332031 L 596.5625 707.84375 L 603.949219 707.84375 L 609.664062 724.664062 L 628.632812 724.664062 " fill-opacity="1" fill-rule="nonzero"/></svg>